<?xml version="1.0" ?><!DOCTYPE svg  PUBLIC '-//W3C//DTD SVG 1.1//EN'  'http://www.w3.org/Graphics/SVG/1.1/DTD/svg11.dtd'><svg height="512px" style="enable-background:new 0 0 512 512;" version="1.1" viewBox="0 0 512 512" width="512px" xml:space="preserve" xmlns="http://www.w3.org/2000/svg" xmlns:xlink="http://www.w3.org/1999/xlink"><g id="C_-_54_x2C__teamwork_x2C__Business_x2C__human_x2C__leadership_x2C__management"><g><path d="M161.422,226.935c-0.018-0.237-0.032-0.473-0.055-0.708c-0.032-0.333-0.071-0.665-0.114-0.997    c-0.017-0.127-0.031-0.254-0.049-0.381c-0.058-0.404-0.122-0.806-0.195-1.206c-0.007-0.037-0.013-0.073-0.02-0.11    c-1.021-5.47-3.52-10.615-7.285-14.874c-0.061-0.068-0.104-0.146-0.16-0.218c-5.73-6.373-14.054-10.394-23.307-10.394H76.427    c-17.243,0-31.271,13.953-31.271,31.104v31.103h114.478h1.876v-31.103c0-0.499-0.015-0.995-0.038-1.489    C161.46,227.418,161.439,227.177,161.422,226.935z M111.829,229.937H93.865v-17.879h17.964V229.937z"/><path d="M421.803,363.401c0-12.125-9.92-21.99-22.114-21.99s-22.114,9.865-22.114,21.99s9.92,21.989,22.114,21.989    S421.803,375.526,421.803,363.401z"/><path d="M103.373,170.87c17.248,0,31.278-13.936,31.278-31.064c0-17.132-14.031-31.07-31.278-31.07    c-17.247,0-31.279,13.938-31.279,31.07C72.094,156.934,86.126,170.87,103.373,170.87z"/><path d="M134.426,363.401c0-12.125-9.921-21.99-22.115-21.99c-12.193,0-22.113,9.865-22.113,21.99s9.92,21.989,22.113,21.989    C124.504,385.391,134.426,375.526,134.426,363.401z"/><path d="M278.114,363.401c0-12.125-9.92-21.99-22.114-21.99c-12.193,0-22.114,9.865-22.114,21.99s9.921,21.989,22.114,21.989    C268.194,385.391,278.114,375.526,278.114,363.401z"/><path d="M282.939,421.572h-53.878c-12.274,0-22.26,9.928-22.26,22.13v22.13h98.396v-22.13    C305.197,431.5,295.213,421.572,282.939,421.572z"/><path d="M139.256,421.572H85.373c-12.274,0-22.26,9.928-22.26,22.13v22.13h98.397v-22.13    C161.51,431.5,151.527,421.572,139.256,421.572z"/><path d="M426.627,421.572h-53.883c-12.271,0-22.255,9.928-22.255,22.13v22.13h98.391v-22.13    C448.88,431.5,438.896,421.572,426.627,421.572z"/><path d="M161.899,46.169v157.646c4.207,5.203,7.145,11.458,8.354,18.302c0.019,0.106,0.039,0.211,0.057,0.317    c0.069,0.414,0.132,0.83,0.189,1.249c0.032,0.236,0.063,0.473,0.091,0.711c0.04,0.342,0.08,0.686,0.11,1.031    c0.033,0.349,0.057,0.698,0.081,1.047c0.018,0.261,0.039,0.521,0.05,0.784c0.03,0.63,0.049,1.262,0.049,1.896v31.103h295.963    V46.169H161.899z M381.726,212.68H202.116c-2.587,0-4.686-2.098-4.686-4.686c0-2.588,2.098-4.686,4.686-4.686h179.609    c2.588,0,4.686,2.097,4.686,4.686C386.411,210.582,384.313,212.68,381.726,212.68z M381.726,180.241H202.116    c-2.587,0-4.686-2.098-4.686-4.686s2.098-4.686,4.686-4.686h179.609c2.588,0,4.686,2.098,4.686,4.686    S384.313,180.241,381.726,180.241z M197.431,143.114c0-2.588,2.098-4.686,4.686-4.686h71.847c2.588,0,4.686,2.098,4.686,4.686    s-2.098,4.686-4.686,4.686h-71.847C199.529,147.799,197.431,145.702,197.431,143.114z M440.294,229.187    c0,2.588-2.097,4.686-4.686,4.686c-2.588,0-4.686-2.098-4.686-4.686V81.92H193.142c-2.587,0-4.686-2.098-4.686-4.686    s2.098-4.686,4.686-4.686h242.467c2.589,0,4.686,2.098,4.686,4.686V229.187z"/></g></g><g id="Layer_1"/></svg>