<?xml version="1.0" ?><svg height="60px" version="1.1" viewBox="0 0 60 60" width="60px" xmlns="http://www.w3.org/2000/svg" xmlns:xlink="http://www.w3.org/1999/xlink"><title/><desc/><defs/><g fill="none" fill-rule="evenodd" id="People" stroke="none" stroke-width="1"><g fill="#000000" id="Icon-30"><path d="M26,35.2588 L26,24.7408 L35.016,29.9998 L26,35.2588 Z M25.504,22.1358 C25.195,21.9568 24.813,21.9538 24.502,22.1328 C24.191,22.3118 24,22.6418 24,22.9998 L24,36.9998 C24,37.3588 24.191,37.6888 24.502,37.8668 C24.656,37.9558 24.828,37.9998 25,37.9998 C25.174,37.9998 25.349,37.9538 25.504,37.8638 L37.504,30.8638 C37.812,30.6848 38,30.3558 38,29.9998 C38,29.6448 37.812,29.3158 37.504,29.1358 L25.504,22.1358 Z M55,57.9998 L50,57.9998 L50,49.9998 L58,49.9998 L58,54.9998 C58,56.6548 56.654,57.9998 55,57.9998 L55,57.9998 Z M50,47.9998 L58,47.9998 L58,41.9998 L50,41.9998 L50,47.9998 Z M50,15.9998 L58,15.9998 L58,9.9998 L50,9.9998 L50,15.9998 Z M50,39.9998 L58,39.9998 L58,33.9998 L50,33.9998 L50,39.9998 Z M50,31.9998 L58,31.9998 L58,25.9998 L50,25.9998 L50,31.9998 Z M50,23.9998 L58,23.9998 L58,17.9998 L50,17.9998 L50,23.9998 Z M55,-0.0002 L15,-0.0002 C14.447,-0.0002 14,0.4468 14,0.9998 C14,1.5528 14.447,1.9998 15,1.9998 L55,1.9998 C56.654,1.9998 58,3.3458 58,4.9998 L58,7.9998 L50,7.9998 L50,4.9998 C50,4.4468 49.553,3.9998 49,3.9998 C48.447,3.9998 48,4.4468 48,4.9998 L48,47.9998 L15,47.9998 C14.447,47.9998 14,48.4468 14,48.9998 C14,49.5528 14.447,49.9998 15,49.9998 L48,49.9998 L48,58.9998 C48,59.5528 48.447,59.9998 49,59.9998 L55,59.9998 C57.757,59.9998 60,57.7568 60,54.9998 L60,4.9998 C60,2.2428 57.757,-0.0002 55,-0.0002 L55,-0.0002 Z M5,1.9998 L10,1.9998 L10,7.9998 L2,7.9998 L2,4.9998 C2,3.3458 3.346,1.9998 5,1.9998 L5,1.9998 Z M2,15.9998 L10,15.9998 L10,9.9998 L2,9.9998 L2,15.9998 Z M2,47.9998 L10,47.9998 L10,41.9998 L2,41.9998 L2,47.9998 Z M2,23.9998 L10,23.9998 L10,17.9998 L2,17.9998 L2,23.9998 Z M2,31.9998 L10,31.9998 L10,25.9998 L2,25.9998 L2,31.9998 Z M2,39.9998 L10,39.9998 L10,33.9998 L2,33.9998 L2,39.9998 Z M45,57.9998 L5,57.9998 C3.346,57.9998 2,56.6548 2,54.9998 L2,49.9998 L10,49.9998 L10,54.9998 C10,55.5528 10.447,55.9998 11,55.9998 C11.553,55.9998 12,55.5528 12,54.9998 L12,9.9998 L45,9.9998 C45.553,9.9998 46,9.5528 46,8.9998 C46,8.4468 45.553,7.9998 45,7.9998 L12,7.9998 L12,0.9998 C12,0.4468 11.553,-0.0002 11,-0.0002 L5,-0.0002 C2.243,-0.0002 0,2.2428 0,4.9998 L0,54.9998 C0,57.7568 2.243,59.9998 5,59.9998 L45,59.9998 C45.553,59.9998 46,59.5528 46,58.9998 C46,58.4468 45.553,57.9998 45,57.9998 L45,57.9998 Z" id="filmstrip"/></g></g></svg>