<?xml version="1.0" ?><!DOCTYPE svg  PUBLIC '-//W3C//DTD SVG 1.1//EN'  'http://www.w3.org/Graphics/SVG/1.1/DTD/svg11.dtd'><svg height="512px" style="enable-background:new 0 0 512 512;" version="1.1" viewBox="0 0 512 512" width="512px" xml:space="preserve" xmlns="http://www.w3.org/2000/svg" xmlns:xlink="http://www.w3.org/1999/xlink"><g id="_x32_52_x2C___Finance_x2C__investment_x2C__management_x2C__solution"><g><path d="M251.182,304.425c27.269,0,49.455-22.184,49.455-49.451c0-27.272-22.186-49.459-49.455-49.459    c-27.27,0-49.455,22.187-49.455,49.459C201.727,282.241,223.913,304.425,251.182,304.425z M232.241,274.622    c1.004-1.968,3.414-2.748,5.381-1.742c9.153,4.675,17.252,2.882,21.405-0.075c2.506-1.783,3.773-4.018,3.479-6.129    c-0.44-3.154-4.229-6.22-10.394-8.41c-16.936-6.004-20.399-15.742-18.219-22.257c1.56-4.66,6.211-8.38,13.245-9.6v-9.605    c0-2.209,1.791-4,4-4s4,1.791,4,4v9.288c3.23,0.252,6.764,0.935,10.565,2.133c2.107,0.664,3.277,2.91,2.613,5.017    c-0.663,2.106-2.91,3.276-5.018,2.613c-12.908-4.065-20.65-0.795-21.819,2.694c-1.109,3.314,3.106,8.562,13.308,12.179    c12.424,4.414,15.133,11.194,15.642,14.844c0.711,5.092-1.818,10.232-6.763,13.752c-2.19,1.559-5.108,2.908-8.529,3.688v10.125    c0,2.209-1.791,4-4,4s-4-1.791-4-4v-9.461c-4.098-0.229-8.557-1.322-13.155-3.671C232.016,278.999,231.236,276.59,232.241,274.622    z"/><path d="M364.943,328.376c-15.102,12.021-32.338,23.977-46.381,22.272c5.744,6.217,8.62,13.917,7.402,21.498    c-2.02,12.561-14.104,20.144-32.329,20.284c-0.011,0-0.021,0-0.03,0c-0.214,0-0.428-0.017-0.638-0.052l-81.215-13.109    c-2.181-0.352-3.664-2.405-3.312-4.586c0.352-2.182,2.407-3.664,4.586-3.312l80.877,13.056    c13.805-0.185,22.826-5.237,24.161-13.55c1.25-7.778-4.967-18.599-18.949-23.331c-0.026-0.009-0.048-0.023-0.073-0.033    l-90.638-14.685c-1.013-0.165-1.924-0.712-2.545-1.528c-10.632-13.987-23.244-21.846-37.485-23.357    c-32.821-3.475-68.078,26.782-85.02,41.326c-1.003,0.86-1.927,1.65-2.817,2.408l-12.273-15.437    c-0.693-0.872-1.717-1.415-2.828-1.499c-1.109-0.088-2.206,0.298-3.021,1.055l-48.841,45.246    c-1.621,1.502-1.717,4.032-0.216,5.652c1.501,1.621,4.032,1.717,5.653,0.217l45.677-42.315l85.132,107.075l-38.31,38.356    c-1.561,1.563-1.56,4.096,0.003,5.657c0.781,0.78,1.804,1.17,2.827,1.17c1.024,0,2.049-0.392,2.83-1.173l40.831-40.881    c1.437-1.438,1.566-3.726,0.301-5.316l-12.185-15.325l12.849-10.217c0.831-0.66,1.89-0.961,2.943-0.844    c120.203,13.729,126.381,8.316,185.488-43.43c15.254-13.355,34.226-29.965,59.424-50.004    c13.666-15.34,14.093-22.759,12.395-24.542C415.214,300.919,393.656,305.097,364.943,328.376z"/><path d="M110.619,473.872c2.804,0,5.561-0.957,7.775-2.706c2.612-2.081,4.258-5.052,4.636-8.367    c0.378-3.318-0.559-6.585-2.635-9.19c-2.385-3.008-5.957-4.732-9.798-4.732c-2.805,0-5.563,0.962-7.775,2.715    c-2.612,2.081-4.258,5.053-4.636,8.369c-0.378,3.32,0.559,6.587,2.64,9.199C103.211,472.154,106.781,473.872,110.619,473.872    C110.619,473.872,110.619,473.872,110.619,473.872z"/><path d="M498.504,119.073c-1.58-1.544-4.112-1.516-5.656,0.063l-45.686,46.718L362.195,58.958l37.135-36.979    c1.564-1.559,1.57-4.092,0.012-5.657c-1.561-1.567-4.093-1.57-5.656-0.012l-39.669,39.502c-1.442,1.437-1.575,3.729-0.309,5.323    l13.468,16.944l-14.149,11.236c-0.829,0.66-1.888,0.963-2.94,0.842c-120.188-13.725-126.364-8.315-185.461,43.432    c-15.259,13.361-34.238,29.979-59.452,50.03c-13.671,15.341-14.096,22.758-12.397,24.542c4.004,4.206,25.567,0.032,54.276-23.253    c15.103-12.023,32.353-23.981,46.39-22.267c-5.749-6.208-8.629-13.903-7.416-21.484c2.012-12.568,14.1-20.157,32.335-20.299    c0.227,0,0.448,0.015,0.669,0.051l81.201,13.11c2.18,0.352,3.662,2.405,3.311,4.586c-0.352,2.181-2.407,3.666-4.586,3.311    l-80.863-13.055c-13.81,0.187-22.835,5.243-24.167,13.561c-1.244,7.772,4.975,18.578,18.952,23.292    c0.053,0.018,0.098,0.048,0.149,0.068l90.547,14.642c1.014,0.164,1.926,0.711,2.547,1.529    c10.629,13.992,23.238,21.855,37.477,23.372c32.806,3.493,68.053-26.742,84.994-41.272c1.501-1.287,2.872-2.461,4.126-3.516    l11.003,13.843c0.714,0.898,1.779,1.447,2.926,1.506c0.068,0.003,0.137,0.005,0.205,0.005c1.073,0,2.105-0.432,2.859-1.203    l48.855-49.959C500.111,123.15,500.083,120.617,498.504,119.073z"/><path d="M391.602,57.013c2.379,3,5.949,4.72,9.796,4.72c0.001,0,0.001,0,0.001,0c2.803,0,5.56-0.955,7.775-2.702    c5.38-4.285,6.278-12.162,2.002-17.561c-2.384-3.007-5.956-4.731-9.802-4.731c-2.812,0-5.571,0.965-7.771,2.717    C388.211,43.753,387.315,51.632,391.602,57.013z"/></g></g><g id="Layer_1"/></svg>