<?xml version="1.0" ?><svg id="Layer_1" style="enable-background:new 0 0 64 64;" version="1.1" viewBox="0 0 64 64" xml:space="preserve" xmlns="http://www.w3.org/2000/svg" xmlns:xlink="http://www.w3.org/1999/xlink"><g><path d="M10.86607,51.25261c2.36706,0,4.28571-3.5873,4.28571-5.95424s-1.91865-4.28571-4.28571-4.28571   c-2.36682,0-4.28571,1.91877-4.28571,4.28571S8.49926,51.25261,10.86607,51.25261z"/><path d="M14.7252,51.83383h-2.04762l-1.81349,3.46925l-1.81548-3.46925H7.00099c-2.99504,0-5.43155,2.43651-5.43155,5.43155V64   H20.1627v-6.73462C20.1627,54.27034,17.72322,51.83383,14.7252,51.83383z M18.13095,61.96825H3.60119v-4.70288   c0-1.8745,1.5248-3.3998,3.3998-3.3998h0.81845l2.06944,3.94593l0.29464,0.65179l1.32936-0.02332l2.39484-4.57441h0.81746   c1.87798,0,3.40575,1.5253,3.40575,3.3998V61.96825z"/><path d="M27.71404,45.29836c0,2.36694,1.9189,5.95424,4.28572,5.95424c2.36706,0,4.28584-3.5873,4.28584-5.95424   s-1.91878-4.28571-4.28584-4.28571C29.63294,41.01265,27.71404,42.93142,27.71404,45.29836z"/><path d="M35.85913,51.83383h-2.04762l-1.81548,3.46627l-1.81448-3.46627h-2.04663c-2.99504,0-5.43254,2.43651-5.43254,5.43155V64   h18.59425v-6.73462C41.29663,54.27034,38.85714,51.83383,35.85913,51.83383z M39.26488,61.96825H24.73413v-4.70288   c0-1.8745,1.52579-3.3998,3.40079-3.3998h0.81746l2.07044,3.94593l0.29861,0.66121l1.4127-0.04216l0.22421-0.58829l2.08334-3.97669   h0.81746c1.87798,0,3.40575,1.5253,3.40575,3.3998V61.96825z"/><path d="M31.99975,13.64881c3.15501,0,5.71255-4.7815,5.71255-7.93638S35.15476,0,31.99975,0   c-3.15476,0-5.7123,2.55754-5.7123,5.71243S28.84499,13.64881,31.99975,13.64881z"/><path d="M48.84784,45.29836c0,2.36694,1.91877,5.95424,4.28571,5.95424s4.28571-3.5873,4.28571-5.95424   s-1.91877-4.28571-4.28571-4.28571S48.84784,42.93142,48.84784,45.29836z"/><path d="M56.99306,51.83383h-2.04762l-1.81548,3.46627l-1.81448-3.46627h-2.04762c-2.99504,0-5.43155,2.43651-5.43155,5.43155V64   h18.59425v-6.73462C62.43056,54.27034,59.99107,51.83383,56.99306,51.83383z M60.39881,61.96825H45.86806v-4.70288   c0-1.8745,1.5248-3.3998,3.3998-3.3998h0.81746l2.09325,3.99653l0.25199,0.60119l1.43452-0.02332l0.22718-0.59772l2.08333-3.97669   h0.81746c1.87798,0,3.40575,1.5253,3.40575,3.3998V61.96825z"/><path d="M54.14856,32.6666v5.75998h-2.03175v-3.72824H33.01848v3.72824h-2.03175v-3.72824H11.87822v3.72824H9.84648V32.6666   h21.14025v-2.367H19.9442v-8.63492c0-3.80952,3.09846-6.90792,6.90799-6.90792h2.51935l2.62091,5.01841l2.63108-5.01841h2.51934   c3.80952,0,6.90799,3.0984,6.90799,6.90792v8.63492H33.01848v2.367H54.14856z"/></g></svg>