<?xml version="1.0" ?><!DOCTYPE svg  PUBLIC '-//W3C//DTD SVG 1.1//EN'  'http://www.w3.org/Graphics/SVG/1.1/DTD/svg11.dtd'><svg height="512px" style="enable-background:new 0 0 512 512;" version="1.1" viewBox="0 0 512 512" width="512px" xml:space="preserve" xmlns="http://www.w3.org/2000/svg" xmlns:xlink="http://www.w3.org/1999/xlink"><g id="_x37_50_x2C__knowledge_x2C__management_x2C__sharing_x2C__smart_x2C__technology"><g><path d="M184.46,474.303c-1.963,0.418-3.897-0.863-4.285-2.856    c-0.386-1.964,0.894-3.867,2.857-4.285l100.761-20.442c1.964-0.388,3.897,0.893,4.285,2.856c0.387,1.993-0.893,3.897-2.856,4.285    L184.46,474.303z M186.366,184.135c3.006,0,5.743,1.221,7.737,3.215l0.089,0.089c1.934,1.993,3.125,4.7,3.125,7.647    c0,3.006-1.222,5.773-3.215,7.736l-0.298,0.269c-1.07,1.011-2.35,1.784-3.778,2.292v17.258c0,1.102-0.478,2.114-1.251,2.769    l-13.36,13.331l27.168,27.169c0.714,0.714,1.072,1.638,1.072,2.588v46.335c0,2.022-1.637,3.66-3.66,3.66    c-2.023,0-3.661-1.638-3.661-3.66v-44.816l-37.941-37.972c-0.684-0.654-1.072-1.575-1.072-2.588v-8.81    c0-2.022,1.637-3.66,3.66-3.66c1.994,0,3.661,1.638,3.661,3.66v7.291l5.624,5.654l12.439-12.438v-15.742    c-1.548-0.566-2.946-1.458-4.077-2.59c-1.965-1.963-3.214-4.73-3.214-7.736s1.249-5.744,3.214-7.736    C180.593,185.355,183.36,184.135,186.366,184.135z M161.519,263.351c-5.208,4.82-15.505,14.045-15.535,14.075    c-1.548,1.309-3.838,1.072-5.119-0.445c-1.279-1.549-1.07-3.84,0.477-5.148c0.03-0.03,10.295-9.195,15.058-13.6l-20.325-20.296    c-0.655-0.685-1.07-1.577-1.07-2.589V192.08c-1.548-0.565-2.946-1.429-4.078-2.589l-0.267-0.269    c-1.816-1.963-2.946-4.582-2.946-7.468c0-3.006,1.249-5.743,3.213-7.739c1.963-1.963,4.732-3.183,7.737-3.183    c3.036,0,5.773,1.22,7.738,3.183c1.993,1.996,3.213,4.733,3.213,7.739c0,3.004-1.22,5.743-3.213,7.736    c-1.132,1.13-2.53,2.023-4.078,2.589v41.75l37.645,37.674c0.714,0.684,1.071,1.637,1.071,2.56v40.56    c0,2.023-1.636,3.66-3.661,3.66c-2.023,0-3.661-1.637-3.661-3.66v-39.072L161.519,263.351z M232.193,206.543    c0-2.023,1.637-3.661,3.66-3.661c2.023,0,3.661,1.638,3.661,3.661v32.525c0,1.011-0.417,1.904-1.072,2.588l-15.593,15.563v57.403    c0,2.023-1.637,3.66-3.66,3.66c-1.994,0-3.631-1.637-3.631-3.66v-57.938l-15.057-15.028c-0.655-0.684-1.071-1.577-1.071-2.588    v-32.525c0-2.023,1.636-3.661,3.659-3.661c2.025,0,3.661,1.638,3.661,3.661v31.008l8.809,8.777v-54.189    c0-2.022,1.637-3.66,3.631-3.66c2.023,0,3.66,1.638,3.66,3.66v54.727l9.344-9.314V206.543z M244.84,187.35    c1.963-1.994,4.703-3.215,7.737-3.215c3.006,0,5.773,1.221,7.738,3.215c1.964,1.992,3.213,4.73,3.213,7.736    s-1.249,5.773-3.213,7.736c-1.132,1.132-2.53,2.023-4.078,2.59v15.742l12.439,12.438l5.624-5.654v-7.291    c0-2.022,1.667-3.66,3.661-3.66c2.022,0,3.66,1.638,3.66,3.66v8.81c0,1.013-0.418,1.934-1.072,2.588l-37.941,37.972v44.816    c0,2.022-1.636,3.66-3.661,3.66c-2.023,0-3.659-1.638-3.659-3.66v-46.335c0-0.95,0.356-1.874,1.07-2.588l27.168-27.169    l-13.36-13.331c-0.773-0.654-1.249-1.667-1.249-2.769v-17.229c-1.548-0.566-2.946-1.458-4.078-2.59    c-1.994-1.963-3.213-4.73-3.213-7.736c0-2.887,1.13-5.505,2.946-7.471L244.84,187.35z M282.484,258.291    c4.761,4.492,15.027,14.046,15.058,14.076c1.428,1.428,1.428,3.749,0,5.178c-1.429,1.428-3.75,1.428-5.179,0    c-0.029-0.029-9.909-9.314-14.998-14.135l-12.141,12.141v39.072c0,2.023-1.667,3.66-3.66,3.66c-2.023,0-3.661-1.637-3.661-3.66    v-40.56c0-0.923,0.356-1.876,1.07-2.56l37.646-37.674v-41.75c-1.548-0.565-2.946-1.429-4.077-2.589    c-1.995-1.993-3.214-4.732-3.214-7.736c0-3.006,1.219-5.743,3.214-7.739c1.964-1.963,4.701-3.183,7.737-3.183    c2.856,0,5.475,1.101,7.438,2.917l0.298,0.266c1.964,1.996,3.215,4.733,3.215,7.739c0,2.944-1.191,5.624-3.096,7.587l-0.119,0.149    c-1.159,1.13-2.528,2.023-4.076,2.589v43.268c0,1.012-0.418,1.904-1.072,2.589L282.484,258.291z M262.278,69.24    c-26.039-6.696-53.593-8.214-82.757-4.285l-6.249,23.3v0.119l-0.03,0.089l-5.893,21.932c28.836-0.416,56.749,3.065,83.681,10.326    c26.99,7.291,53.058,18.36,78.232,33.092l12.171-45.441C315.218,89.028,288.822,76.263,262.278,69.24z M173.093,60.729l0.03-0.088    l0,0l0.03-0.061v-0.059v-0.03l0.03-0.03v-0.029l0.03-0.03v-0.03l0.03-0.029v-0.06l0,0l0.03-0.06l0,0l0.03-0.061l0,0l0.03-0.059    l0,0l0.03-0.061l0,0l0.03-0.057v-0.031l0.03-0.029v-0.029l0.03-0.03v-0.03l0.03-0.029l0.03-0.029v-0.03l0.03-0.03v-0.029    l0.03-0.03l0.03-0.03v-0.029h0.03l0.03-0.06l0,0l0.03-0.06l0.058-0.06l0,0l0.03-0.06l0,0l0.06-0.03l0,0l0,0l0.06-0.117h0.03    l0.03-0.03v-0.029l0.03-0.03h0.03l0.03-0.03l0.03-0.029l0.03-0.029v-0.03h0.03l0.03-0.03l0.03-0.029l0.03-0.029l0.06-0.061    l0.03-0.029h0.03l0.03-0.03l0.03-0.03l0.028-0.029l0,0l0.06-0.029l0,0l0.06-0.061l0,0l0.06-0.029l0,0l0.06-0.029l0,0l0.03-0.03    h0.03l0.03-0.028l0.03-0.029l0.03-0.03h0.03l0.03-0.03h0.03l0.03-0.029h0.03l0.03-0.029h0.03l0.03-0.03h0.03l0.03-0.03h0.028h0.03    l0.03-0.029h0.06v-0.03h0.06l0.03-0.03h0.03h0.03l0.03-0.029h0.03l0.03-0.029h0.03h0.03l0.06-0.03l0,0h0.06h0.03l0.03-0.03h0.03    l0.118-0.029h0.03h0.03h0.03l0.03-0.029h0.03h0.06h0.03l0.03-0.03h0.06h0.089l0.535-0.09c28.776-4.402,57.374-3.422,85.792,3.869    l1.815,0.476l2.708,0.715c28.537,7.796,55.351,21.545,80.496,40.917c1.249,0.863,1.904,2.44,1.488,3.988l-4.465,16.604    l32.317-20.592L276.741,26.002L150.983,43.32l17.677,33.982L173.093,60.729z M184.46,451.359    c-1.963,0.389-3.897-0.891-4.285-2.886c-0.386-1.964,0.894-3.868,2.857-4.256l100.761-20.473c1.964-0.388,3.897,0.894,4.285,2.887    c0.387,1.964-0.893,3.867-2.856,4.285L184.46,451.359z M314.385,373.305l-0.061-0.029l0.209-24.967l0.029-0.386v-0.03v-0.06v-0.03    v-0.059v-0.061v-0.029v-0.061v-0.029v-0.06v-1.31l1.041-0.982l0.06-0.029l0.03-0.03l0.625-0.595l0.178-0.178l0.448-0.417    l0.356-0.356c12.706-12.35,23.033-27.854,30.324-44.637c13.539-31.216,16.692-68.741,3.391-100.672    c-5.385-12.915-13.123-24.342-22.438-36.065c-25.502-15.356-51.956-26.813-79.394-34.251    c-27.764-7.56-56.271-10.893-85.047-10.237c-24.312,10.981-44.904,28.776-59.337,50.945    c-14.077,21.694-22.259,47.552-22.259,75.378c0,4.611,0.237,9.104,0.625,13.42c0.446,4.404,1.07,8.809,1.934,13.182    c0.179,0.744,0.089,1.577-0.267,2.321l-26.634,55.825c3.957,2.738,7.826,5,11.606,6.846c4.492,2.202,8.956,3.867,13.301,5.029    c1.577,0.445,2.708,1.844,2.708,3.541c-0.03,37.852,2.172,57.016,11.576,65.765c9.225,8.6,26.813,8.005,57.374,6.1l0.476-0.028    c2.023,0,3.66,1.636,3.66,3.658v66.272l154.831-3.245L314.385,373.305z M365.091,221.391c0.983,5.982,1.548,12.32,1.697,19.136    v0.208l0.03,0.654v0.417v0.476v0.595v0.298l0.029,0.774v0.12c-0.029,15.324-2.441,30.441-7.112,44.873    c-7.32,22.615-20.176,43.477-37.911,60.439l-0.09,13.33l0.774-0.952l2.499,0.952c2.381,0.924,4.881,1.728,7.47,2.441    c2.588,0.685,5.148,1.25,7.677,1.636l2.678,0.388l4.314,28.806h8.898l4.346-28.806l2.647-0.388    c2.53-0.386,5.089-0.951,7.679-1.636c2.588-0.684,5.087-1.518,7.498-2.441l2.5-0.952l18.152,22.767l7.706-4.465l-10.683-27.109    l2.082-1.666c2.025-1.638,4.02-3.422,5.863-5.268c1.846-1.875,3.601-3.809,5.238-5.834l1.696-2.112l2.499,0.983l24.61,9.672    l4.464-7.709l-22.766-18.121l0.952-2.5c0.924-2.412,1.757-4.91,2.441-7.498c0.685-2.591,1.249-5.148,1.636-7.68l0.417-2.647    l28.776-4.345v-8.898l-28.776-4.314l-0.417-2.678c-0.387-2.529-0.951-5.09-1.636-7.678s-1.518-5.089-2.441-7.47l-0.952-2.499    l22.766-18.152l-4.464-7.707l-27.109,10.652l-1.696-2.082c-1.638-2.023-3.393-3.988-5.238-5.833    c-1.844-1.874-3.838-3.631-5.863-5.269l-2.082-1.694l10.683-27.109l-7.736-4.435l-18.122,22.765l-2.5-0.982    c-2.113-0.802-4.91-1.606-7.797-2.29L365.091,221.391z" style="fill-rule:evenodd;clip-rule:evenodd;"/></g></g><g id="Layer_1"/></svg>