<?xml version="1.0" ?><!DOCTYPE svg  PUBLIC '-//W3C//DTD SVG 1.1//EN'  'http://www.w3.org/Graphics/SVG/1.1/DTD/svg11.dtd'><svg height="512px" style="enable-background:new 0 0 512 512;" version="1.1" viewBox="0 0 512 512" width="512px" xml:space="preserve" xmlns="http://www.w3.org/2000/svg" xmlns:xlink="http://www.w3.org/1999/xlink"><g id="_x36_2_x2C__Mind_x2C__Creative_x2C__thinking_x2C__idea_x2C__brainstorming"><g><path d="M385.033,195.03c-2.121-2.12-5.075-3.437-8.322-3.437    c-3.221,0-6.176,1.316-8.296,3.437c-2.147,2.122-3.464,5.075-3.464,8.323c0,3.25,1.316,6.203,3.436,8.297    c2.123,2.148,5.075,3.464,8.324,3.464c3.194,0,6.068-1.263,8.164-3.302l0.158-0.162c2.122-2.121,3.438-5.047,3.438-8.297    C388.471,200.105,387.155,197.152,385.033,195.03 M186.616,440.945h23.521c-10.578-27.467-19.011-132.771-19.036-133.094    c-0.133-1.825,1.235-3.409,3.032-3.543c1.829-0.135,3.411,1.234,3.544,3.061c0,0.349,9.427,118.836,19.415,133.576H340.49    c6.552-5.826,6.66-23.172,6.766-40.301c0.109-17.265,0.215-34.313,7.223-42.234c9.988-11.277,21.482-10.498,35.898-9.532    c3.65,0.242,7.518,0.511,11.329,0.564c24.219,0.402,29.346-12.002,29.563-26.421c0.105-5.557-0.484-11.545-1.049-17.264    c-1.478-15.09-2.818-28.541,8.054-32.891c1.854-0.752,2.766-0.939,4.404-1.234l1.478-0.297    c13.961-2.845,18.204-6.121,17.396-10.067c-0.855-4.351-6.306-10.337-12.672-17.345c-5.773-6.363-12.298-13.559-17.345-21.721    c-5.559-8.995-5.45-21.83-5.288-37.482c0.322-34.341,0.778-83.019-61.592-127.857c-31.199-22.446-72.145-32.918-111.936-30.527    c-38.155,2.281-75.205,16.432-101.467,43.254c-27.599,28.138-39.387,62.936-37.909,98.135    c1.558,37.509,18.175,75.555,46.743,106.592c15.144,16.459,17.776,61.942,20.194,103.988    C181.703,402.685,183.047,425.883,186.616,440.945z M281.636,141.358l23.117,3.49v11.976l-23.117,3.49l-0.562,3.141l-0.779,3.223    l-0.94,3.088l-1.103,3.114l18.285,14.579l-5.987,10.391l-21.773-8.565l-2.066,2.444l-2.285,2.389l-2.334,2.229l-2.523,2.148    l8.563,21.775l-10.392,5.987l-14.578-18.284l-2.98,1.074c-2.281,0.671-4.029,1.154-6.31,1.691l-3.274,0.617l-3.464,23.117H215.13    l-3.492-23.117l-3.141-0.564l-3.222-0.779l-3.088-0.912l-3.113-1.127l-14.579,18.284l-10.392-5.987l8.567-21.775l-2.418-2.066    l-2.418-2.283l-2.2-2.336l-2.176-2.524l-21.745,8.565l-6.015-10.391l18.284-14.579l-1.102-3.034l-0.913-3.168l-0.751-3.088    l-0.593-3.275l-23.117-3.464v-12.028l23.093-3.464l0.589-3.142l0.779-3.222l0.913-3.114l1.102-3.088l-18.284-14.58l6.015-10.391    l21.745,8.565l2.123-2.443l2.253-2.417l2.366-2.229l2.471-2.12l-8.567-21.775l10.392-5.987l14.579,18.285l3.06-1.102l3.141-0.912    l3.088-0.752l3.274-0.591L215.13,67.2h12.002l3.464,23.117l3.113,0.563l3.25,0.779l3.061,0.913l3.141,1.128l14.578-18.285    l10.392,5.987l-8.563,21.775l2.468,2.095l2.39,2.281l2.204,2.336l2.147,2.497l21.773-8.565l5.987,10.391l-18.285,14.58    l1.103,3.061l0.94,3.142l0.751,3.087L281.636,141.358z M443.645,460.438c1.8,0,3.306,1.477,3.306,3.302    c0,1.826-1.506,3.303-3.306,3.303H392.9c-1.825,0-3.303-1.477-3.303-3.303c0-1.825,1.478-3.302,3.303-3.302H443.645z     M380.632,479.394c1.825,0,3.302,1.477,3.302,3.303c0,1.825-1.477,3.303-3.302,3.303H265.636c-1.829,0-3.303-1.478-3.303-3.303    c0-1.826,1.474-3.303,3.303-3.303H380.632z M120.216,485.999c-1.797,0-3.303-1.478-3.303-3.303c0-1.826,1.506-3.303,3.303-3.303    h50.747c1.825,0,3.303,1.477,3.303,3.303c0,1.825-1.478,3.303-3.303,3.303H120.216z M215.72,485.999    c-1.797,0-3.302-1.478-3.302-3.303c0-1.826,1.505-3.303,3.302-3.303h23.145c1.825,0,3.303,1.477,3.303,3.303    c0,1.825-1.478,3.303-3.303,3.303H215.72z M94.604,274.371c1.126,1.422,0.884,3.49-0.565,4.591    c-1.421,1.128-3.488,0.886-4.618-0.563L76.13,261.402v155.485c0,1.826-1.474,3.303-3.303,3.303c-1.797,0-3.302-1.477-3.302-3.303    V261.402L56.22,278.398c-1.098,1.449-3.166,1.691-4.604,0.563c-1.435-1.101-1.677-3.169-0.575-4.591l19.049-24.326    c0.59-0.913,1.583-1.504,2.737-1.504c1.155,0,2.176,0.591,2.766,1.504L94.604,274.371z M126.663,323.424    c1.126,1.424,0.856,3.492-0.565,4.619c-1.425,1.102-3.492,0.859-4.619-0.564l-13.291-16.995v155.485    c0,1.826-1.478,3.303-3.302,3.303c-1.825,0-3.303-1.477-3.303-3.303V310.483l-13.29,16.995c-1.102,1.424-3.169,1.666-4.619,0.564    c-1.421-1.127-1.664-3.195-0.565-4.619l19.039-24.324c0.562-0.887,1.583-1.477,2.737-1.477c1.154,0,2.176,0.59,2.766,1.477    L126.663,323.424z M183.233,467.043c-1.825,0-3.303-1.477-3.303-3.303c0-1.825,1.478-3.302,3.303-3.302h178.441    c1.828,0,3.306,1.477,3.306,3.302c0,1.826-1.478,3.303-3.306,3.303H183.233z" style="fill-rule:evenodd;clip-rule:evenodd;"/></g></g><g id="Layer_1"/></svg>