<?xml version="1.0" ?><!DOCTYPE svg  PUBLIC '-//W3C//DTD SVG 1.1//EN'  'http://www.w3.org/Graphics/SVG/1.1/DTD/svg11.dtd'><svg height="512px" style="enable-background:new 0 0 512 512;" version="1.1" viewBox="0 0 512 512" width="512px" xml:space="preserve" xmlns="http://www.w3.org/2000/svg" xmlns:xlink="http://www.w3.org/1999/xlink"><g id="_x32_34_x2C__tutorials_x2C__video_x2C__media_x2C__online_x2C__education"><g><path d="M449.925,61.008c-3.389-3.418-8.088-5.523-13.276-5.523H75.352    c-5.066,0-9.704,2.044-13.092,5.309l-0.183,0.215c-3.388,3.388-5.524,8.088-5.524,13.246v260.183    c0,5.157,2.136,9.857,5.524,13.245c3.418,3.419,8.118,5.524,13.275,5.524h361.296c5.188,0,9.888-2.105,13.276-5.524    c3.418-3.388,5.523-8.088,5.523-13.245V74.254C455.448,69.096,453.343,64.396,449.925,61.008 M432.346,283.254V78.404H78.832    v204.85H432.346z M439.822,74.65v212.357c0,2.075-1.68,3.755-3.753,3.755H75.078c-2.076,0-3.753-1.68-3.753-3.755V74.65    c0-2.075,1.678-3.754,3.753-3.754h360.991C438.143,70.896,439.822,72.575,439.822,74.65z M299.368,360.714h-86.737l-17.335,65.862    h121.409L299.368,360.714z M136.21,434.084v19.746h239.581v-19.746C295.92,434.084,216.081,434.084,136.21,434.084z     M259.358,330.133c-0.854-0.854-2.046-1.404-3.358-1.404s-2.502,0.55-3.357,1.404s-1.374,2.045-1.374,3.357    c0,1.281,0.52,2.473,1.374,3.326c0.854,0.886,2.044,1.404,3.357,1.404c1.251,0,2.381-0.458,3.206-1.252l0.152-0.152    c0.854-0.854,1.372-2.045,1.372-3.326C260.73,332.178,260.213,330.987,259.358,330.133z M256,321.251    c3.389,0,6.439,1.374,8.668,3.571c2.197,2.197,3.571,5.279,3.571,8.668c0,3.357-1.374,6.439-3.571,8.637l-0.305,0.275    c-2.167,2.044-5.128,3.326-8.363,3.326c-3.357,0-6.44-1.373-8.637-3.602c-2.227-2.197-3.601-5.279-3.601-8.637    c0-3.389,1.374-6.439,3.571-8.637C249.56,322.625,252.643,321.251,256,321.251z M338.924,154.705v-27.957    c0-0.58,0.121-1.16,0.396-1.679c0.914-1.862,3.173-2.595,5.005-1.679l27.987,14.008c0.701,0.336,1.282,0.916,1.646,1.649    c0.948,1.861,0.186,4.089-1.646,5.005l-27.682,13.825c-0.579,0.366-1.252,0.58-1.953,0.58    C340.602,158.458,338.924,156.779,338.924,154.705z M346.401,132.791v15.87l15.87-7.935L346.401,132.791z M198.195,117.042    c-0.761,1.618-1.586,3.205-2.502,4.7c-1.037,1.709-2.167,3.357-3.418,4.944c3.204,2.777,6.836,5.066,10.804,6.776    c3.662,1.556,7.629,2.594,11.811,2.99c-0.396-0.947-0.854-1.893-1.313-2.838l-0.091-0.184l-0.03-0.092l-0.123-0.244l-0.091-0.183    h-0.03l-0.062-0.153l-0.396-0.701l0,0l-0.091-0.152l-0.093-0.184l-0.06-0.092l-0.032-0.061l-0.182-0.336l-0.032-0.03l-0.488-0.794    l-0.03-0.03l-0.062-0.152l-0.123-0.153l-0.06-0.121l-0.031-0.031l-0.091-0.184l-0.121-0.152l-0.032-0.031l-0.062-0.121    l-0.121-0.184l-0.091-0.092v-0.061l-0.123-0.152l-0.123-0.152l-0.03-0.062l-0.062-0.091l-0.121-0.184l-0.091-0.122l-0.032-0.03    l-0.091-0.153l-0.123-0.152l-0.03-0.061l-0.091-0.093l-0.091-0.152l-0.123-0.152l0,0l-0.244-0.305l-0.03-0.062l-0.093-0.091    l-0.121-0.152l-0.091-0.153l0,0l-0.123-0.152l-0.123-0.153l-0.06-0.061l-0.062-0.092l-0.123-0.152l-0.244-0.306l-0.153-0.152    l-0.03-0.061l-0.091-0.122l-0.152-0.152l-0.062-0.092l-0.062-0.061l-0.854-0.947l-0.062-0.061l-0.518-0.58l-0.153-0.152l0,0    l-0.305-0.306l-0.062-0.03l-0.091-0.092l-0.581-0.58l-0.03-0.03l-0.641-0.58l-0.062-0.061    C202.652,120.033,200.485,118.416,198.195,117.042z M140.574,134.957c1.586,0.58,3.234,1.068,4.943,1.435    c2.778,0.61,5.738,0.946,8.791,0.946c8.728,0,16.816-2.746,23.377-7.416c2.229-1.557,4.304-3.387,6.166-5.372l0.214-0.243    c1.83-1.984,3.509-4.212,4.943-6.592c0.793-1.313,1.495-2.656,2.137-4.029c-4.304-1.525-8.912-2.381-13.764-2.381    c-11.17,0-21.273,4.518-28.628,11.842C145.335,126.596,142.557,130.563,140.574,134.957z M186.965,132.394    c-1.495,1.403-3.113,2.686-4.792,3.876c-7.874,5.586-17.488,8.882-27.864,8.882c-3.541,0-7.05-0.396-10.469-1.159    c-1.984-0.428-3.938-1.008-5.799-1.679c-0.732,3.052-1.128,6.226-1.128,9.46c0,11.172,4.546,21.305,11.873,28.629    c7.324,7.324,17.427,11.842,28.597,11.842c11.078,0,21.15-4.457,28.445-11.659l0.182-0.183    c7.325-7.324,11.873-17.457,11.873-28.629c0-2.502-0.244-4.975-0.672-7.354c-6.073-0.184-11.873-1.526-17.183-3.785    C195.235,138.59,190.841,135.782,186.965,132.394z M201.583,219.01l-1.586,1.404l-0.031,0.03l-0.062,0.061l-0.03,0.03l-0.03,0.031    l-0.062,0.031l-20.724,18.555h23.196L201.583,219.01z M144.633,216.996L91.04,238.055v11.14h171.126v-11.14l-53.167-20.876    l0.854,25.606c0.062,2.044-1.556,3.783-3.601,3.846l-59.209,0.029c-2.076,0-3.753-1.709-3.753-3.754L144.633,216.996z     M172.132,239.152l-20.143-19.38l-1.007,19.38H172.132z M193.648,216.049v-18.8c-5.066,1.831-10.56,2.808-16.267,2.808    c-6.196,0-12.116-1.16-17.581-3.296v20.112l15.872,15.26L193.648,216.049z M237.658,143.412h-3.143l-0.214,0.061    c-0.641,0.152-1.281,0.123-1.862-0.061h-7.477c0.488,2.716,0.732,5.523,0.732,8.361c0,2.869-0.244,5.708-0.732,8.424h12.696    V143.412z M129.832,143.412h-7.417c-0.611,0.184-1.281,0.213-1.953,0.061l-0.183-0.061h-3.113v16.785h12.666    c-0.489-2.716-0.733-5.555-0.733-8.424C129.098,148.936,129.342,146.128,129.832,143.412z M126.414,135.934h5.371    c2.411-6.958,6.378-13.184,11.475-18.281l0.061-0.091c8.73-8.698,20.785-14.07,34.062-14.07c13.336,0,25.391,5.401,34.151,14.131    l0.062,0.093c5.066,5.065,9.004,11.291,11.415,18.219h5.493c-3.54-12.421-10.009-23.377-18.525-31.313    c-8.881-8.301-20.082-13.306-32.595-13.306c-12.269,0-23.287,5.065-32.138,13.306    C136.668,112.617,130.105,123.604,126.414,135.934z M113.411,135.934h4.854c3.967-14.496,11.536-27.559,21.669-37.02    c10.255-9.553,23.103-15.413,37.448-15.413c14.619,0,27.59,5.799,37.875,15.413c10.072,9.369,17.518,22.34,21.303,37.02h4.854    c2.074,0,3.753,1.68,3.753,3.754v24.265c0,2.075-1.679,3.753-3.753,3.753h-18.404c-2.442,6.929-6.378,13.124-11.476,18.221    l-0.214,0.214c-3.021,2.96-6.44,5.555-10.162,7.661v15.564l0.854-0.763c1.067-0.977,2.593-1.19,3.845-0.702l0.396,0.152    l0.091,0.03l0.061,0.03l0.091,0.063l0.091,0.03l60.674,23.805c1.497,0.58,2.381,2.015,2.381,3.511l0.03,17.426    c0,2.076-1.709,3.755-3.754,3.755H87.286c-2.076,0-3.753-1.679-3.753-3.755v-17.426c0-1.709,1.098-3.113,2.625-3.602l61.162-24.02    l0,0c0.335-0.122,0.702-0.214,1.037-0.244h0.03h0.032h0.062h0.03h0.367h0.091h0.03h0.062l0,0h0.062l0.03,0.03l0.184,0.03l0,0h0.06    h0.032h0.03l0.153,0.031v0.03h0.061h0.03l0.031,0.03h0.06l0.062,0.03h0.032l0.03,0.03h0.03h0.032l0,0l0.091,0.031l0,0l0.061,0.031    l0,0l0.062,0.029l0.03,0.031h0.03l0.062,0.03l0,0l0.062,0.03h0.03l0.032,0.03l0.03,0.03h0.03l0.062,0.031l0,0l0.061,0.031v0.03    h0.062l0.03,0.03l0.062,0.061l0,0l0.062,0.031l0.03,0.03h0.032l0.03,0.03l0.03,0.03l0.032,0.03h0.03l0.031,0.031l0.06,0.061    l0.031,0.031l0.03,0.03l0.032,0.03l0,0l0.06,0.061l0,0l0.062,0.031v0.03l0.03,0.03l0.032,0.03h0.03l0.916,0.886l-0.03-16.664    c-3.297-2.015-6.319-4.395-9.035-7.111c-5.096-5.097-9.034-11.292-11.475-18.221h-18.374c-2.074,0-3.753-1.678-3.753-3.753    v-24.265C109.657,137.613,111.336,135.934,113.411,135.934z M401.123,108.68h-95.772v62.078h95.772V108.68z M352.963,196.974    c-2.076,0-3.754-1.709-3.754-3.753c0-2.076,1.678-3.755,3.754-3.755h58.567c2.076,0,3.754,1.679,3.754,3.755    c0,2.044-1.678,3.753-3.754,3.753H352.963z M304.404,217.025c-2.074,0-3.753-1.709-3.753-3.754c0-2.074,1.679-3.754,3.753-3.754    H411.53c2.076,0,3.754,1.68,3.754,3.754c0,2.045-1.678,3.754-3.754,3.754H304.404z M304.404,237.047    c-2.074,0-3.753-1.678-3.753-3.724c0-2.075,1.679-3.755,3.753-3.755H411.53c2.076,0,3.754,1.68,3.754,3.755    c0,2.046-1.678,3.724-3.754,3.724H304.404z M304.404,257.099c-2.074,0-3.753-1.679-3.753-3.724c0-2.075,1.679-3.754,3.753-3.754    H411.53c2.076,0,3.754,1.679,3.754,3.754c0,2.045-1.678,3.724-3.754,3.724H304.404z M50.663,468.907    c-2.076,0-3.755-1.679-3.755-3.754c0-2.045,1.679-3.754,3.755-3.754h277.548c2.074,0,3.754,1.709,3.754,3.754    c0,2.075-1.68,3.754-3.754,3.754H50.663z M213.181,485.815c-2.074,0-3.753-1.709-3.753-3.755c0-2.074,1.679-3.753,3.753-3.753    h192.063c2.076,0,3.754,1.679,3.754,3.753c0,2.046-1.678,3.755-3.754,3.755H213.181z M424.898,485.815    c-2.045,0-3.754-1.709-3.754-3.755c0-2.074,1.709-3.753,3.754-3.753h24.019c2.076,0,3.754,1.679,3.754,3.753    c0,2.046-1.678,3.755-3.754,3.755H424.898z M39.736,485.297c-2.076,0-3.753-1.679-3.753-3.755c0-2.074,1.678-3.754,3.753-3.754    h91.01c2.046,0,3.755,1.68,3.755,3.754c0,2.076-1.709,3.755-3.755,3.755H39.736z M33.51,166.516c0,2.075-1.679,3.754-3.753,3.754    c-2.076,0-3.755-1.679-3.755-3.754V55.025c0-7.935,3.266-15.168,8.486-20.387c5.219-5.219,12.42-8.454,20.357-8.454h64.09    c2.046,0,3.755,1.679,3.755,3.753c0,2.046-1.709,3.755-3.755,3.755h-64.09c-5.861,0-11.202,2.38-15.047,6.257    c-3.876,3.876-6.288,9.217-6.288,15.076V166.516z M457.157,33.692c-2.075,0-3.753-1.709-3.753-3.755    c0-2.074,1.678-3.753,3.753-3.753c7.936,0,15.139,3.235,20.357,8.454c5.25,5.249,8.484,12.452,8.484,20.387v47.123    c0,2.075-1.678,3.754-3.754,3.754s-3.753-1.679-3.753-3.754V55.025c0-5.859-2.382-11.2-6.258-15.076    C468.358,36.072,463.019,33.692,457.157,33.692z M301.597,101.172h103.28c2.075,0,3.755,1.679,3.755,3.754v69.586    c0,2.075-1.68,3.754-3.755,3.754h-103.28c-2.044,0-3.753-1.679-3.753-3.754v-69.586    C297.844,102.851,299.553,101.172,301.597,101.172z" style="fill-rule:evenodd;clip-rule:evenodd;"/></g></g><g id="Layer_1"/></svg>