<?xml version="1.0" ?><!DOCTYPE svg  PUBLIC '-//W3C//DTD SVG 1.1//EN'  'http://www.w3.org/Graphics/SVG/1.1/DTD/svg11.dtd'><svg height="512px" style="enable-background:new 0 0 512 512;" version="1.1" viewBox="0 0 512 512" width="512px" xml:space="preserve" xmlns="http://www.w3.org/2000/svg" xmlns:xlink="http://www.w3.org/1999/xlink"><g id="_x35_1_x2C__Type_Writer_x2C__paper_x2C__computer_x2C__paper_x2C__keyboard"><g><path d="M436.962,359.146v24.48c0,6.744,2.753,12.87,7.207,17.323l0.128,0.154    c4.429,4.351,10.504,7.055,17.17,7.055c6.771,0,12.896-2.755,17.35-7.209c4.428-4.453,7.183-10.579,7.183-17.323v-24.48h-21.366    v23.45c0,1.75-1.414,3.167-3.166,3.167c-1.725,0-3.141-1.417-3.141-3.167v-23.45H436.962z M382.93,408.98h-6.64v6.256h6.64V408.98    z M373.148,402.648h12.949c1.749,0,3.165,1.442,3.165,3.167v12.587c0,1.725-1.416,3.141-3.165,3.141h-12.949    c-1.751,0-3.165-1.416-3.165-3.141v-12.587C369.983,404.091,371.397,402.648,373.148,402.648z M355.438,408.98h-6.64v6.256h6.64    V408.98z M345.631,402.648h12.975c1.75,0,3.166,1.442,3.166,3.167v12.587c0,1.725-1.416,3.141-3.166,3.141h-12.975    c-1.725,0-3.139-1.416-3.139-3.141v-12.587C342.492,404.091,343.906,402.648,345.631,402.648z M382.93,344.268h-6.64v6.255h6.64    V344.268z M373.148,337.961h12.949c1.749,0,3.165,1.416,3.165,3.141v12.587c0,1.725-1.416,3.166-3.165,3.166h-12.949    c-1.751,0-3.165-1.441-3.165-3.166v-12.587C369.983,339.377,371.397,337.961,373.148,337.961z M382.93,377.164h-6.64v6.256h6.64    V377.164z M373.148,370.857h12.949c1.749,0,3.165,1.416,3.165,3.141v12.589c0,1.724-1.416,3.165-3.165,3.165h-12.949    c-1.751,0-3.165-1.441-3.165-3.165v-12.589C369.983,372.273,371.397,370.857,373.148,370.857z M355.438,344.268h-6.64v6.255h6.64    V344.268z M345.631,337.961h12.975c1.75,0,3.166,1.416,3.166,3.141v12.587c0,1.725-1.416,3.166-3.166,3.166h-12.975    c-1.725,0-3.139-1.441-3.139-3.166v-12.587C342.492,339.377,343.906,337.961,345.631,337.961z M355.438,377.164h-6.64v6.256h6.64    V377.164z M345.631,370.857h12.975c1.75,0,3.166,1.416,3.166,3.141v12.589c0,1.724-1.416,3.165-3.166,3.165h-12.975    c-1.725,0-3.139-1.441-3.139-3.165v-12.589C342.492,372.273,343.906,370.857,345.631,370.857z M327.946,344.268h-6.615v6.255    h6.615V344.268z M318.166,337.961h12.947c1.75,0,3.166,1.416,3.166,3.141v12.587c0,1.725-1.416,3.166-3.166,3.166h-12.947    c-1.752,0-3.166-1.441-3.166-3.166v-12.587C315,339.377,316.414,337.961,318.166,337.961z M327.946,377.164h-6.615v6.256h6.615    V377.164z M318.166,370.857h12.947c1.75,0,3.166,1.416,3.166,3.141v12.589c0,1.724-1.416,3.165-3.166,3.165h-12.947    c-1.752,0-3.166-1.441-3.166-3.165v-12.589C315,372.273,316.414,370.857,318.166,370.857z M137.848,344.268h-6.616v6.255h6.616    V344.268z M128.066,337.961h12.947c1.751,0,3.167,1.416,3.167,3.141v12.587c0,1.725-1.416,3.166-3.167,3.166h-12.947    c-1.751,0-3.167-1.441-3.167-3.166v-12.587C124.899,339.377,126.315,337.961,128.066,337.961z M164.953,344.268h-6.616v6.255    h6.616V344.268z M155.172,337.961h12.947c1.751,0,3.167,1.416,3.167,3.141v12.587c0,1.725-1.417,3.166-3.167,3.166h-12.947    c-1.751,0-3.167-1.441-3.167-3.166v-12.587C152.005,339.377,153.421,337.961,155.172,337.961z M192.059,344.268h-6.642v6.255    h6.642V344.268z M182.278,337.961h12.946c1.751,0,3.167,1.416,3.167,3.141v12.587c0,1.725-1.416,3.166-3.167,3.166h-12.946    c-1.751,0-3.167-1.441-3.167-3.166v-12.587C179.11,339.377,180.526,337.961,182.278,337.961z M219.164,344.268h-6.642v6.255h6.642    V344.268z M209.357,337.961h12.973c1.751,0,3.167,1.416,3.167,3.141v12.587c0,1.725-1.416,3.166-3.167,3.166h-12.973    c-1.725,0-3.166-1.441-3.166-3.166v-12.587C206.191,339.377,207.632,337.961,209.357,337.961z M246.244,344.268h-6.615v6.255    h6.615V344.268z M236.462,337.961h12.949c1.75,0,3.166,1.416,3.166,3.141v12.587c0,1.725-1.416,3.166-3.166,3.166h-12.949    c-1.751,0-3.166-1.441-3.166-3.166v-12.587C233.297,339.377,234.711,337.961,236.462,337.961z M273.349,344.268h-6.615v6.255    h6.615V344.268z M263.568,337.961h12.948c1.749,0,3.165,1.416,3.165,3.141v12.587c0,1.725-1.416,3.166-3.165,3.166h-12.948    c-1.752,0-3.166-1.441-3.166-3.166v-12.587C260.402,339.377,261.816,337.961,263.568,337.961z M300.455,344.268h-6.641v6.255    h6.641V344.268z M290.674,337.961h12.948c1.749,0,3.165,1.416,3.165,3.141v12.587c0,1.725-1.416,3.166-3.165,3.166h-12.948    c-1.751,0-3.166-1.441-3.166-3.166v-12.587C287.508,339.377,288.923,337.961,290.674,337.961z M137.848,377.164h-6.616v6.256    h6.616V377.164z M128.066,370.857h12.947c1.751,0,3.167,1.416,3.167,3.141v12.589c0,1.724-1.416,3.165-3.167,3.165h-12.947    c-1.751,0-3.167-1.441-3.167-3.165v-12.589C124.899,372.273,126.315,370.857,128.066,370.857z M164.953,377.164h-6.616v6.256    h6.616V377.164z M155.172,370.857h12.947c1.751,0,3.167,1.416,3.167,3.141v12.589c0,1.724-1.417,3.165-3.167,3.165h-12.947    c-1.751,0-3.167-1.441-3.167-3.165v-12.589C152.005,372.273,153.421,370.857,155.172,370.857z M192.059,377.164h-6.642v6.256    h6.642V377.164z M182.278,370.857h12.946c1.751,0,3.167,1.416,3.167,3.141v12.589c0,1.724-1.416,3.165-3.167,3.165h-12.946    c-1.751,0-3.167-1.441-3.167-3.165v-12.589C179.11,372.273,180.526,370.857,182.278,370.857z M219.164,377.164h-6.642v6.256h6.642    V377.164z M209.357,370.857h12.973c1.751,0,3.167,1.416,3.167,3.141v12.589c0,1.724-1.416,3.165-3.167,3.165h-12.973    c-1.725,0-3.166-1.441-3.166-3.165v-12.589C206.191,372.273,207.632,370.857,209.357,370.857z M246.244,377.164h-6.615v6.256    h6.615V377.164z M236.462,370.857h12.949c1.75,0,3.166,1.416,3.166,3.141v12.589c0,1.724-1.416,3.165-3.166,3.165h-12.949    c-1.751,0-3.166-1.441-3.166-3.165v-12.589C233.297,372.273,234.711,370.857,236.462,370.857z M273.349,377.164h-6.615v6.256    h6.615V377.164z M263.568,370.857h12.948c1.749,0,3.165,1.416,3.165,3.141v12.589c0,1.724-1.416,3.165-3.165,3.165h-12.948    c-1.752,0-3.166-1.441-3.166-3.165v-12.589C260.402,372.273,261.816,370.857,263.568,370.857z M300.455,377.164h-6.641v6.256    h6.641V377.164z M290.674,370.857h12.948c1.749,0,3.165,1.416,3.165,3.141v12.589c0,1.724-1.416,3.165-3.165,3.165h-12.948    c-1.751,0-3.166-1.441-3.166-3.165v-12.589C287.508,372.273,288.923,370.857,290.674,370.857z M137.848,409.779h-6.616v6.229    h6.616V409.779z M128.066,403.446h12.947c1.751,0,3.167,1.416,3.167,3.166v12.562c0,1.752-1.416,3.166-3.167,3.166h-12.947    c-1.751,0-3.167-1.414-3.167-3.166v-12.562C124.899,404.862,126.315,403.446,128.066,403.446z M164.953,409.779h-6.616v6.229    h6.616V409.779z M155.172,403.446h12.947c1.751,0,3.167,1.416,3.167,3.166v12.562c0,1.752-1.417,3.166-3.167,3.166h-12.947    c-1.751,0-3.167-1.414-3.167-3.166v-12.562C152.005,404.862,153.421,403.446,155.172,403.446z M192.059,409.779h-6.642v6.229    h6.642V409.779z M182.278,403.446h12.946c1.751,0,3.167,1.416,3.167,3.166v12.562c0,1.752-1.416,3.166-3.167,3.166h-12.946    c-1.751,0-3.167-1.414-3.167-3.166v-12.562C179.11,404.862,180.526,403.446,182.278,403.446z M219.164,409.779h-6.642v6.229h6.642    V409.779z M209.357,403.446h12.973c1.751,0,3.167,1.416,3.167,3.166v12.562c0,1.752-1.416,3.166-3.167,3.166h-12.973    c-1.725,0-3.166-1.414-3.166-3.166v-12.562C206.191,404.862,207.632,403.446,209.357,403.446z M236.771,403.446h74.598    c1.752,0,3.166,1.416,3.166,3.166v12.562c0,1.752-1.414,3.166-3.166,3.166h-74.598c-1.751,0-3.166-1.414-3.166-3.166v-12.562    C233.606,404.862,235.02,403.446,236.771,403.446z M308.204,409.779h-68.292v6.229h68.292V409.779z M299.991,85.258h32.848    l-32.848-32.82V85.258z M259.088,234.377h75.475l-24.583-36.629L259.088,234.377z M183.59,234.377h59.205L225.42,204.44    L183.59,234.377z M337.316,91.591h-40.49c-1.726,0-3.166-1.416-3.166-3.167v-40.49H176.897v88.035v0.077v95.346l47.673-34.106    c1.414-1.005,3.371-0.67,4.401,0.745l20.594,35.446l59.384-42.756c1.391-1.004,3.373-0.695,4.377,0.721l23.99,35.729v-91.124    v-0.077V91.591z M355.901,51.254v7.979h22.731v-7.979c0-2.214-0.902-4.195-2.343-5.638c-1.442-1.441-3.45-2.343-5.638-2.343    h-6.771c-2.188,0-4.171,0.901-5.638,2.343C356.803,47.059,355.901,49.066,355.901,51.254z M378.633,65.566h-22.731v2.754h22.731    V65.566z M378.633,74.627h-8.186v70.145c0,1.751-1.443,3.167-3.168,3.167c-1.75,0-3.166-1.416-3.166-3.167V74.627h-8.212v61.342    v0.077v57.969l11.378,18.122l11.354-18.122c0-34.056,0-7.155,0-57.969v-0.077V74.627z M199.627,85.232    c-1.751,0-3.167-1.416-3.167-3.166s1.416-3.167,3.167-3.167h61.727c1.751,0,3.167,1.417,3.167,3.167s-1.416,3.166-3.167,3.166    H199.627z M199.627,99.364c-1.751,0-3.167-1.416-3.167-3.167c0-1.75,1.416-3.165,3.167-3.165h61.727    c1.751,0,3.167,1.415,3.167,3.165c0,1.751-1.416,3.167-3.167,3.167H199.627z M199.627,113.496c-1.751,0-3.167-1.416-3.167-3.141    c0-1.75,1.416-3.166,3.167-3.166h61.727c1.751,0,3.167,1.416,3.167,3.166c0,1.725-1.416,3.141-3.167,3.141H199.627z     M199.627,127.654c-1.751,0-3.167-1.441-3.167-3.166c0-1.75,1.416-3.166,3.167-3.166h61.727c1.751,0,3.167,1.416,3.167,3.166    c0,1.725-1.416,3.166-3.167,3.166H199.627z M199.627,141.786c-1.751,0-3.167-1.416-3.167-3.166c0-1.751,1.416-3.167,3.167-3.167    h61.727c1.751,0,3.167,1.416,3.167,3.167c0,1.75-1.416,3.166-3.167,3.166H199.627z M199.627,155.918    c-1.751,0-3.167-1.416-3.167-3.166c0-1.725,1.416-3.166,3.167-3.166h61.727c1.751,0,3.167,1.441,3.167,3.166    c0,1.75-1.416,3.166-3.167,3.166H199.627z M199.627,170.051c-1.751,0-3.167-1.417-3.167-3.142c0-1.751,1.416-3.165,3.167-3.165    h61.727c1.751,0,3.167,1.414,3.167,3.165c0,1.725-1.416,3.142-3.167,3.142H199.627z M88.244,468.727    c-1.751,0-3.166-1.416-3.166-3.166c0-1.751,1.414-3.167,3.166-3.167H335.31c1.749,0,3.165,1.416,3.165,3.167    c0,1.75-1.416,3.166-3.165,3.166H88.244z M232.911,456.164c-1.725,0-3.167-1.416-3.167-3.165c0-1.751,1.442-3.168,3.167-3.168    H403.91c1.751,0,3.165,1.417,3.165,3.168c0,1.749-1.414,3.165-3.165,3.165H232.911z M421.413,456.164    c-1.749,0-3.165-1.416-3.165-3.165c0-1.751,1.416-3.168,3.165-3.168h21.366c1.749,0,3.165,1.417,3.165,3.168    c0,1.749-1.416,3.165-3.165,3.165H421.413z M78.488,456.525c-1.725,0-3.166-1.416-3.166-3.141c0-1.751,1.44-3.166,3.166-3.166    h81.034c1.75,0,3.166,1.415,3.166,3.166c0,1.725-1.416,3.141-3.166,3.141H78.488z M412.79,270.184c0-1.75,1.417-3.166,3.166-3.166    c1.751,0,3.167,1.416,3.167,3.166v33.182c0,1.75-1.416,3.165-3.167,3.165c-1.749,0-3.166-1.415-3.166-3.165V270.184z     M109.429,383.059H59.645c-1.75,0-3.166-1.416-3.166-3.166V272.809c0-1.75,1.416-3.166,3.166-3.166h55.447V139.212h55.499v98.332    v0.103v0.077l0,0v0.077l0,0v0.078l0,0l0.025,0.076l0,0v0.078l0,0l0.026,0.076l0,0v0.078l0,0l0.026,0.051v0.025v0.053l0.024,0.025    v0.051v0.026l0.026,0.052v0.025l0.026,0.052v0.025l0.024,0.052v0.025l0.026,0.052l0,0l0.026,0.052v0.025l0.024,0.052l0.026,0.025    l0.026,0.052v0.025l0.024,0.052l0,0l0.026,0.077l0,0l0.051,0.051l0,0l0.053,0.078l0.025,0.076l0,0l0.052,0.053l0,0l0.025,0.051    l0.026,0.025l0.026,0.053h0.025l0.026,0.051l0.026,0.025l0.024,0.025l0.026,0.025l0.026,0.053l0.024,0.025l0.026,0.025    l0.026,0.026l0.024,0.026l0.026,0.025l0.026,0.025l0.024,0.026l0.026,0.025l0.026,0.025l0.024,0.026l0.026,0.025l0.026,0.025    l0.051,0.052h0.026l0.025,0.025l0.026,0.026l0.051,0.025v0.025l0.053,0.026v0.025l0.051,0.025h0.026l0.051,0.052l0,0l0.051,0.025    h0.026l0.051,0.052l0.13,0.052l0.025,0.025l0.052,0.025l0,0l0.077,0.027l0,0l0.051,0.025l0.026,0.025h0.051l0.026,0.025    l0.128,0.025v0.025l0.207,0.053h0.024l0.053,0.025h0.025l0.207,0.051h0.024h0.026c0.154,0.025,0.309,0.025,0.463,0.025h73.104    c0.979,0.645,2.241,0.722,3.295,0.104l0.128-0.104h90.173c1.749,0,3.165-1.414,3.165-3.165v-98.332h5.972v55.679    c0,0.746,0.231,1.416,0.644,1.93l0.027,0.026l14.338,22.884l0.024,0.025l0.026,0.026v0.025l0.026,0.026l0.024,0.025l0,0    l0.026,0.051v0.027h0.026l0.024,0.025v0.025l0.026,0.025l0.026,0.025l0,0l0.024,0.053l0.026,0.025l0.026,0.025l0.024,0.025l0,0    l0.053,0.053l0,0l0.024,0.025l0.026,0.025l0,0l0.026,0.025l0.024,0.051l0.053,0.027l0.024,0.025l0,0l0.027,0.025l0.025,0.025    h0.025l0.025,0.025l0,0l0.027,0.026l0.051,0.026v0.025l0.025,0.025h0.025l0.025,0.026l0.027,0.025l0,0l0.023,0.025l0.053,0.026    l0,0l0.025,0.025h0.025l0.027,0.025l0.051,0.026h0.025l0.025,0.025l0.026,0.025l0.051,0.026h0.026l0.051,0.025l0.026,0.025h0.026    l0.051,0.026l0.026,0.025h0.024l0.053,0.025l0.026,0.026h0.024l0.053,0.025h0.024l0.053,0.025h0.024l0.053,0.026h0.024h0.053    v0.025h0.077l0,0l0.077,0.026l0,0l0.052,0.025h0.025h0.051h0.027l0.051,0.025h0.025h0.051h0.027l0.051,0.025h0.025h0.051h0.027    h0.051l0,0h0.077l0,0h0.077l0,0h0.077l0,0h0.077l0,0h0.077l0,0h0.077l0,0h0.077l0,0l0.077-0.025l0,0h0.078l0,0l0.051-0.025h0.025    h0.051h0.027l0.051-0.025H368l0.051-0.026h0.027h0.051l0.025-0.025h0.051h0.027l0.025-0.026h0.025l0.053-0.025h0.024l0.053-0.025    h0.024l0.053-0.026l0.024-0.025h0.026l0.051-0.025l0.026-0.026h0.051l0.026-0.025l0.026-0.025h0.024l0.053-0.026l0.024-0.025    l0.053-0.025l0,0l0.051-0.026l0.026-0.025h0.025l0.025-0.025l0,0l0.051-0.026l0.027-0.025l0,0l0.052-0.025v-0.026h0.024    l0.053-0.025v-0.025l0.025-0.026l0.025-0.026l0,0l0.051-0.025l0,0l0.027-0.025l0.025-0.025h0.025l0.025-0.025l0.027-0.027    l0.023-0.051l0.027-0.025l0,0l0.051-0.025v-0.025h0.025l0.027-0.053l0,0l0.024-0.025l0.026-0.025l0.025-0.025l0.025-0.053l0,0    l0.026-0.025l0.026-0.025v-0.025l0.051-0.025l0,0v-0.027l0.051-0.051l0,0l0.026-0.025v-0.026l0.026-0.025v-0.026l0.024-0.025    l14.338-22.884l0.026-0.026c0.387-0.488,0.617-1.105,0.645-1.775v-0.025l0.024-0.129v-21.031v-0.18v-0.154v-34.313h14.157v20.618    h62.372c1.726,0,3.166,1.416,3.166,3.167v159.056c0,1.75-1.44,3.166-3.166,3.166c-6.77,0-12.897,2.754-17.324,7.182    c-4.454,4.479-7.207,10.605-7.207,17.35v3.063h24.428h0.077h0.104h24.429v-3.063c0-6.744-2.755-12.896-7.183-17.324l-0.154-0.154    c-4.428-4.35-10.502-7.053-17.169-7.053c-1.751,0-3.167-1.416-3.167-3.166V166.137h-59.205v134.551H115.092v-24.712H62.811    v100.751h46.619v-44.712h295.303v95.782H109.429V383.059z M108.759,244.211V136.046c0-1.751,1.416-3.167,3.167-3.167h58.665    v-13.564l-12.021,4.711l-1.467-1.803c-1.288-1.621-2.729-3.217-4.299-4.788c-1.595-1.57-3.192-3.012-4.813-4.324l-1.776-1.468    l8.751-22.266l-6.125-3.553l-14.905,18.739l-2.162-0.849c-1.957-0.747-4.015-1.416-6.152-1.982    c-2.084-0.566-4.195-1.004-6.306-1.339l-2.292-0.36l-3.552-23.656h-7.052l-3.553,23.656l-2.316,0.36    c-2.084,0.31-4.195,0.772-6.307,1.339c-2.137,0.566-4.171,1.235-6.125,1.982l-2.164,0.849l-14.93-18.739l-6.101,3.553    l8.752,22.292l-1.802,1.441c-1.621,1.313-3.218,2.754-4.787,4.324c-1.571,1.571-3.013,3.192-4.326,4.788l-1.467,1.803L39,115.271    l-3.527,6.102l18.714,14.904l-0.823,2.188c-0.772,1.957-1.442,4.017-1.982,6.127c-0.567,2.137-1.03,4.248-1.364,6.307    l-0.335,2.316l-23.682,3.553v7.053l23.682,3.553l0.335,2.316c0.333,2.059,0.797,4.17,1.339,6.307    c0.591,2.137,1.26,4.195,2.007,6.152l0.823,2.162l-18.714,14.904L39,205.315l22.292-8.752l1.467,1.776    c1.288,1.621,2.755,3.243,4.326,4.813c1.569,1.569,3.166,3.011,4.787,4.325l1.802,1.441l-8.752,22.291l6.101,3.527l14.93-18.715    l2.164,0.85c1.93,0.746,3.988,1.416,6.125,1.982c2.111,0.566,4.222,1.029,6.307,1.338l2.316,0.361l3.553,23.656H108.759z" style="fill-rule:evenodd;clip-rule:evenodd;"/></g></g><g id="Layer_1"/></svg>